<svg version="1.0" xmlns="http://www.w3.org/2000/svg" viewBox="0 0 512.000000 512.000000" preserveAspectRatio="none">
  <metadata>
    Created by potrace 1.16, written by Peter Selinger 2001-2019
  </metadata>
  <g transform="translate(0.000000,512.000000) scale(0.100000,-0.100000)" stroke="none">
    <path d="M1310 5109 c-306 -24 -472 -211 -542 -609 -17 -99 -17 -568 0 -710
35 -288 85 -636 92 -650 15 -29 38 -42 77 -44 21 -1 50 -7 64 -13 75 -32 119
-38 279 -37 253 2 335 11 370 41 16 13 34 41 40 61 13 50 12 462 -4 747 -7
127 -12 231 -11 232 1 1 73 -6 161 -17 612 -74 1425 -135 1806 -135 l237 0 -7
-40 c-13 -75 -7 -654 11 -905 35 -505 58 -1065 96 -2282 20 -641 16 -613 89
-646 32 -14 82 -17 357 -17 314 0 321 0 355 -22 62 -40 148 -22 183 36 43 74
70 855 48 1416 -11 282 -41 861 -73 1430 -16 289 -16 1182 0 1380 7 83 22 240
34 350 20 185 20 203 5 237 -28 67 -30 67 -378 78 -344 11 -447 16 -1119 60
-585 38 -756 48 -1025 60 -251 11 -1003 11 -1145 -1z" />
    <path d="M2080 3417 c-14 -7 -26 -21 -28 -32 -2 -11 -13 -30 -24 -41 -20 -22
-61 -179 -93 -357 l-17 -97 -37 -6 c-20 -4 -227 2 -461 14 -629 33 -754 35
-983 23 -245 -13 -276 -23 -307 -94 -16 -38 -18 -89 -23 -503 -6 -501 -3 -543
47 -642 14 -27 37 -59 51 -70 14 -11 25 -27 25 -35 0 -36 43 -67 110 -79 93
-16 384 -14 598 6 101 9 252 16 335 16 135 0 575 -25 603 -34 6 -2 16 -37 23
-77 28 -156 78 -317 116 -374 70 -106 119 -114 265 -40 228 114 422 275 759
626 128 134 287 296 351 359 178 173 177 182 -38 392 -153 149 -375 344 -692
608 -102 85 -250 210 -330 279 -80 68 -154 132 -165 142 -30 25 -57 30 -85 16z" />
    <path d="M1264 1391 c-113 -18 -181 -52 -214 -107 -24 -37 -28 -90 -12 -121 8
-15 5 -31 -15 -71 -23 -47 -27 -71 -39 -274 -8 -123 -17 -334 -21 -470 l-6
-248 36 -34 c23 -21 51 -36 74 -40 89 -15 291 -26 463 -26 196 1 198 1 238 52
24 30 33 131 33 368 0 239 -17 453 -60 761 -21 151 -28 172 -72 194 -35 18
-321 29 -405 16z" />
  </g>
</svg>
